<svg width="26" height="23" viewBox="0 0 26 23" fill="none" xmlns="http://www.w3.org/2000/svg">
<path d="M23.2703 18.6206H8.44095L8.23634 15.7166L22.7474 15.2702L25.4739 2.82219H5.72257L3.60827 0.425127H0V0H3.79664L5.91094 2.39706H26L23.0884 15.6855L8.68778 16.1287L8.83393 18.1954H23.2703V18.6206Z" fill="black"/>
<path d="M6.19727 2.76836L5.78247 2.84766L8.25499 15.9608L8.66979 15.8815L6.19727 2.76836Z" fill="black"/>
<path d="M11.3672 21.047C11.3676 21.4092 11.2612 21.7633 11.0616 22.0647C10.862 22.366 10.5782 22.601 10.246 22.7399C9.91378 22.8788 9.54812 22.9154 9.19526 22.8451C8.84239 22.7747 8.51817 22.6006 8.26359 22.3447C8.009 22.0888 7.83549 21.7627 7.765 21.4075C7.69451 21.0523 7.7302 20.6841 7.86756 20.3493C8.00492 20.0145 8.23778 19.7283 8.53669 19.5268C8.83561 19.3253 9.18715 19.2176 9.54686 19.2173C9.78576 19.2169 10.0224 19.2639 10.2432 19.3556C10.4641 19.4474 10.6648 19.5821 10.8339 19.752C11.0029 19.922 11.1371 20.1238 11.2286 20.346C11.3201 20.5682 11.3672 20.8064 11.3672 21.047Z" fill="black"/>
<path d="M23.9961 21.047C23.9961 21.4088 23.8895 21.7626 23.6898 22.0635C23.4902 22.3644 23.2064 22.5989 22.8743 22.7374C22.5423 22.8759 22.1769 22.9121 21.8244 22.8415C21.4719 22.7709 21.1482 22.5966 20.894 22.3408C20.6399 22.0849 20.4668 21.7588 20.3967 21.4039C20.3266 21.049 20.3626 20.6811 20.5001 20.3468C20.6377 20.0124 20.8706 19.7267 21.1694 19.5256C21.4682 19.3246 21.8195 19.2173 22.1789 19.2173C22.6609 19.2173 23.1231 19.4101 23.4638 19.7532C23.8046 20.0963 23.9961 20.5617 23.9961 21.047Z" fill="black"/>
</svg>
