<svg width="22" height="22" viewBox="0 0 22 22" fill="none" xmlns="http://www.w3.org/2000/svg">
<path d="M11.6819 14.1634H10.5609V13.2055C10.5574 12.9324 10.5925 12.6602 10.665 12.3969C10.7304 12.1682 10.8274 11.9498 10.953 11.7479C11.0724 11.5596 11.2121 11.3851 11.3695 11.2273C11.5222 11.0746 11.6819 10.9219 11.8415 10.7726L12.2892 10.3735C12.5491 10.1664 12.7731 9.91779 12.9521 9.63776C13.1382 9.32325 13.2298 8.96178 13.2159 8.59659C13.2214 8.32206 13.1669 8.04962 13.0562 7.79835C12.9567 7.57214 12.8099 7.3698 12.6259 7.20489C12.4393 7.04324 12.2238 6.91841 11.9907 6.837C11.7423 6.74919 11.4803 6.70572 11.2168 6.70859C10.9619 6.69911 10.7076 6.74092 10.4692 6.83154C10.2307 6.92215 10.0129 7.05973 9.82857 7.23612C9.46636 7.59949 9.23243 8.071 9.16222 8.57923L8.07593 8.38835C8.19605 7.62489 8.58499 6.92946 9.17263 6.42748C9.7657 5.94581 10.5121 5.69331 11.2758 5.71601C11.6855 5.71397 12.093 5.77603 12.4836 5.89995C12.8439 6.01461 13.1777 6.19983 13.4657 6.44483C13.7484 6.69034 13.9755 6.99321 14.1321 7.3333C14.3012 7.71068 14.3854 8.12062 14.3785 8.53412C14.3828 8.83627 14.3454 9.13757 14.2674 9.42953C14.198 9.67499 14.0927 9.90887 13.9551 10.1236C13.8199 10.3254 13.6615 10.5106 13.4831 10.6755C13.3026 10.8421 13.1083 11.0225 12.907 11.1787C12.7057 11.3349 12.494 11.5258 12.3378 11.675C12.1893 11.8148 12.0598 11.9735 11.9526 12.147C11.8536 12.3184 11.7833 12.5048 11.7443 12.6988C11.6992 12.9414 11.6783 13.1879 11.6819 13.4346V14.1634ZM12.0949 16.4679C12.0953 16.6914 12.0096 16.9065 11.8554 17.0683C11.7745 17.1517 11.6777 17.218 11.5707 17.2634C11.4637 17.3087 11.3486 17.332 11.2324 17.332C11.1162 17.332 11.0012 17.3087 10.8942 17.2634C10.7872 17.218 10.6903 17.1517 10.6094 17.0683C10.4554 16.9063 10.3695 16.6914 10.3695 16.4679C10.3695 16.2444 10.4554 16.0294 10.6094 15.8675C10.6903 15.784 10.7872 15.7177 10.8942 15.6724C11.0012 15.6271 11.1162 15.6037 11.2324 15.6037C11.3486 15.6037 11.4637 15.6271 11.5707 15.6724C11.6777 15.7177 11.7745 15.784 11.8554 15.8675C12.009 16.0297 12.0946 16.2445 12.0949 16.4679Z" fill="black"/>
<path d="M10.9981 21.9998C8.82214 21.9998 6.69507 21.3546 4.88584 20.1457C3.07662 18.9368 1.6665 17.2186 0.8338 15.2083C0.00110475 13.198 -0.216766 10.9859 0.207738 8.85175C0.632242 6.71762 1.68006 4.7573 3.21868 3.21868C4.7573 1.68006 6.71762 0.632243 8.85175 0.207738C10.9859 -0.216766 13.198 0.00110475 15.2083 0.8338C17.2186 1.6665 18.9368 3.07662 20.1457 4.88584C21.3546 6.69507 21.9998 8.82214 21.9998 10.9981C21.9971 13.9151 20.8371 16.7118 18.7744 18.7744C16.7118 20.8371 13.9151 21.9971 10.9981 21.9998ZM10.9981 0.801517C8.98055 0.801517 7.00835 1.39983 5.33088 2.52077C3.65342 3.64172 2.34606 5.23495 1.57415 7.09897C0.802232 8.96298 0.60044 11.014 0.994292 12.9928C1.38814 14.9715 2.35995 16.7889 3.78679 18.2153C5.21364 19.6416 7.03144 20.6128 9.01028 21.006C10.9891 21.3992 13.0401 21.1967 14.9039 20.4242C16.7676 19.6516 18.3604 18.3437 19.4808 16.6659C20.6012 14.988 21.1988 13.0156 21.1981 10.9981C21.1954 8.29403 20.1197 5.70157 18.2073 3.78984C16.295 1.87811 13.7021 0.803355 10.9981 0.801517Z" fill="black"/>
</svg>
