<svg width="101" height="34" viewBox="0 0 101 34" fill="none" xmlns="http://www.w3.org/2000/svg">
<path d="M95.0561 14.4126C95.8412 14.4997 96.6311 14.6206 97.4235 14.6545C97.4873 14.6609 97.5511 14.6416 97.6008 14.6007C97.6505 14.5599 97.682 14.501 97.6884 14.4368C97.6948 14.3727 97.6755 14.3086 97.6349 14.2588C97.5942 14.2089 97.5355 14.1772 97.4716 14.1708C96.6865 14.0475 95.8918 14.0257 95.1042 13.9725C94.8634 13.958 94.8056 14.3812 95.0561 14.4126Z" fill="#45C391"/>
<path d="M93.5437 14.8454C94.4094 15.1762 95.3319 15.3316 96.2578 15.3025C96.3043 15.2972 96.3472 15.2749 96.3783 15.2399C96.4095 15.2049 96.4267 15.1596 96.4267 15.1127C96.4267 15.0657 96.4095 15.0204 96.3783 14.9854C96.3472 14.9504 96.3043 14.9281 96.2578 14.9228C95.3687 14.8843 94.4834 14.7824 93.6087 14.6181C93.594 14.6142 93.5786 14.6132 93.5635 14.6154C93.5484 14.6175 93.5339 14.6227 93.5209 14.6306C93.5079 14.6385 93.4965 14.649 93.4876 14.6614C93.4787 14.6738 93.4724 14.6879 93.469 14.7028C93.465 14.7177 93.4641 14.7333 93.4662 14.7486C93.4683 14.7639 93.4734 14.7786 93.4813 14.7919C93.4891 14.8052 93.4995 14.8168 93.5119 14.826C93.5243 14.8352 93.5383 14.8418 93.5533 14.8454" fill="#45C391"/>
<path d="M86.4343 14.7873C87.1568 13.5153 87.8263 12.1974 88.4742 10.8625C90.8078 10.5312 92.3973 9.9726 93.5003 7.71883C94.6467 5.35624 94.4058 3.14358 93.5557 0.756813C93.5504 0.739699 93.5403 0.724467 93.5266 0.712903C93.513 0.701339 93.4963 0.693922 93.4786 0.691522C93.941 0.548848 93.6279 -0.210469 93.192 0.0579516C91.0246 1.37104 88.7969 2.1763 87.3398 4.41072C85.9502 6.52907 86.3982 8.52168 87.4434 10.7174L87.5542 10.4756C86.9124 11.7973 86.3667 13.164 85.9213 14.5648C85.892 14.6331 85.8908 14.7103 85.9181 14.7795C85.9455 14.8486 85.999 14.9041 86.067 14.9336C86.1351 14.9631 86.212 14.9642 86.2809 14.9368C86.3497 14.9093 86.4049 14.8556 86.4343 14.7873ZM88.8426 3.68043C90.0107 2.3891 91.6555 1.20902 93.3558 0.725377C93.3462 0.751942 93.3462 0.781031 93.3558 0.807596C93.9747 2.81229 94.1241 4.55824 93.3558 6.54358C92.3612 9.08512 91.4894 9.92907 88.845 10.1129L88.556 10.7174C89.6253 8.50233 90.6296 6.24373 91.6868 4.05767C91.7052 4.01797 91.7081 3.97286 91.6952 3.93108C91.6823 3.8893 91.6544 3.85383 91.6169 3.83154C91.5794 3.80926 91.535 3.80174 91.4923 3.81046C91.4496 3.81918 91.4117 3.8435 91.3858 3.87872C90.0033 5.9321 88.7594 8.07621 87.6626 10.2966L87.7902 10.0234C86.6101 7.58341 87.0051 5.69479 88.8378 3.68043H88.8426Z" fill="#45C391"/>
<path d="M91.7569 5.15077C92.1394 4.85234 92.5023 4.52923 92.843 4.18349C92.8786 4.14264 92.8983 4.09025 92.8984 4.03598C92.9004 4.00833 92.8969 3.98057 92.8881 3.95429C92.8794 3.92801 92.8656 3.90372 92.8474 3.88283C92.8293 3.86193 92.8072 3.84483 92.7825 3.83252C92.7578 3.82021 92.7309 3.81292 92.7033 3.81108C92.6601 3.8079 92.617 3.81894 92.5805 3.84252C92.1646 4.13513 91.7709 4.45845 91.4028 4.8098C91.3754 4.83002 91.3534 4.8567 91.3387 4.88749C91.324 4.91827 91.3171 4.95222 91.3186 4.98633C91.3331 5.05789 91.3751 5.12083 91.4355 5.16156C91.4959 5.20228 91.5698 5.21751 91.6413 5.20397C91.6833 5.19531 91.7229 5.17712 91.7569 5.15077Z" fill="#45C391"/>
<path d="M92.7417 5.2957C91.9686 5.83254 91.2678 6.47095 90.5453 7.0755C90.52 7.09551 90.4997 7.12131 90.4863 7.15075C90.4729 7.1802 90.4667 7.21244 90.4682 7.24478C90.4682 7.42856 90.685 7.62444 90.8632 7.4866C91.6122 6.91832 92.3877 6.3718 93.0813 5.7334C93.1069 5.71074 93.1275 5.68284 93.1417 5.65157C93.1558 5.6203 93.1631 5.58637 93.1631 5.55203C93.1583 5.35374 92.9392 5.15786 92.7417 5.2957Z" fill="#45C391"/>
<path d="M92.6165 7.25439C92.6524 7.21128 92.6709 7.15626 92.6684 7.10013C92.6659 7.04401 92.6426 6.99085 92.603 6.95112C92.5635 6.9114 92.5105 6.88798 92.4546 6.88548C92.3987 6.88297 92.3439 6.90157 92.301 6.9376C91.5061 7.63792 90.6618 8.27961 89.7747 8.85766C89.7459 8.87777 89.7258 8.90801 89.7182 8.94236C89.7106 8.97672 89.7161 9.01268 89.7337 9.04312C89.7513 9.07356 89.7796 9.09626 89.8131 9.1067C89.8466 9.11714 89.8827 9.11456 89.9144 9.09948C90.8897 8.65211 91.8892 8.07416 92.6165 7.25439Z" fill="#45C391"/>
<path d="M90.2033 4.244C90.1672 4.5221 90.6585 4.59222 90.685 4.30929C90.7783 3.80876 90.8347 3.30197 90.8535 2.79308C90.8516 2.74166 90.8317 2.69259 90.7972 2.65455C90.7626 2.61652 90.7158 2.592 90.665 2.58533C90.6142 2.57866 90.5627 2.59029 90.5196 2.61814C90.4765 2.64599 90.4447 2.68826 90.4297 2.73746C90.3193 3.23371 90.2436 3.73713 90.2033 4.244Z" fill="#45C391"/>
<path d="M88.8499 6.37672C88.8438 6.43402 88.8602 6.49144 88.8958 6.53666C88.9314 6.58188 88.9832 6.61128 89.0401 6.61855H89.0907C89.1593 6.61986 89.226 6.59603 89.2783 6.55151C89.3306 6.507 89.3649 6.44485 89.3749 6.37672C89.4929 5.46506 89.6398 4.54856 89.6711 3.62722C89.6711 3.32011 89.1895 3.24031 89.122 3.55226C88.9607 4.48569 88.9197 5.43362 88.8499 6.37672Z" fill="#45C391"/>
<path d="M88.284 8.05993C88.281 6.97919 88.3615 5.89985 88.5248 4.83162C88.5609 4.5898 88.1467 4.53177 88.0865 4.77359C87.8479 5.86498 87.8217 6.99241 88.0094 8.09379C88.0335 8.24855 88.2888 8.22195 88.284 8.05993Z" fill="#45C391"/>
<path d="M92.1614 3.20428C92.4215 2.76416 92.6961 2.31921 92.9128 1.85492C93.0501 1.56231 92.6407 1.3084 92.4745 1.59617C92.212 2.04354 92.0073 2.51992 91.7905 2.98664C91.6749 3.23571 92.0217 3.45335 92.1614 3.20428Z" fill="#45C391"/>
<path d="M100.778 11.2446C98.6999 10.7827 96.8744 9.97019 94.6972 10.4732C92.6213 10.9568 91.6869 12.5867 91.0607 14.5358L91.6555 14.2673C92.378 12.091 93.7411 11.0632 96.0242 10.9036C97.4837 10.802 99.1743 11.039 100.482 11.7451C100.471 11.7488 100.46 11.7548 100.451 11.7627C100.442 11.7706 100.434 11.7802 100.429 11.7911C99.6463 13.375 98.7264 14.5285 97.1056 15.283C95.0248 16.2503 93.8881 16.1995 92.1709 14.7631L92.077 14.7969C93.9194 14.1609 95.7497 13.4185 97.5535 12.7535C97.5855 12.7445 97.6127 12.7232 97.6294 12.6943C97.646 12.6654 97.6508 12.6311 97.6426 12.5988C97.6385 12.5827 97.6311 12.5677 97.621 12.5546C97.611 12.5414 97.5984 12.5305 97.584 12.5224C97.5696 12.5142 97.5537 12.5091 97.5373 12.5073C97.5209 12.5054 97.5043 12.507 97.4885 12.5117C94.9573 13.0582 92.2384 13.8369 89.9553 15.0774C89.9119 15.1044 89.8809 15.1476 89.8692 15.1974C89.8574 15.2473 89.8659 15.2998 89.8927 15.3434C89.9152 15.3788 89.9484 15.406 89.9873 15.4212C90.0263 15.4364 90.069 15.4388 90.1094 15.4281C90.6922 15.2669 91.2726 15.0839 91.8506 14.8791L91.5159 14.9928C93.1294 16.1535 94.5503 16.8306 96.5348 16.0882C98.5963 15.3217 99.7258 13.8321 100.595 11.883C100.602 11.8696 100.606 11.8547 100.606 11.8395C100.606 11.8243 100.602 11.8093 100.595 11.7959C100.949 11.9821 101.202 11.3365 100.778 11.2446Z" fill="#45C391"/>
<path d="M98.3459 13.3002C97.9261 13.2325 97.5018 13.1961 97.0767 13.1914C96.7997 13.1914 96.8166 13.6001 97.0767 13.617C97.4829 13.6609 97.8919 13.6746 98.3001 13.6581C98.324 13.6588 98.3478 13.6546 98.3702 13.646C98.3925 13.6373 98.4128 13.6242 98.4301 13.6076C98.4473 13.5909 98.4611 13.571 98.4707 13.549C98.4802 13.5269 98.4852 13.5032 98.4855 13.4792C98.4865 13.4377 98.4731 13.3972 98.4476 13.3646C98.4222 13.3319 98.3862 13.3092 98.3459 13.3002Z" fill="#45C391"/>
<path d="M97.3319 11.2686C96.9749 11.506 96.6345 11.7678 96.3132 12.0521C96.1301 12.202 96.3878 12.5357 96.5757 12.3809C96.922 12.1305 97.2489 11.854 97.5535 11.5539C97.5698 11.538 97.5826 11.5188 97.5909 11.4975C97.5992 11.4762 97.6029 11.4534 97.6016 11.4306C97.6023 11.4068 97.5982 11.383 97.5897 11.3608C97.5812 11.3385 97.5685 11.3182 97.5521 11.3009C97.5358 11.2836 97.5163 11.2697 97.4946 11.26C97.4729 11.2503 97.4495 11.245 97.4258 11.2444C97.3928 11.2426 97.36 11.251 97.3319 11.2686Z" fill="#45C391"/>
<path d="M94.471 12.5602C94.2591 12.756 94.577 13.0438 94.7913 12.8673C95.3886 12.3836 96.0123 11.9 96.5662 11.3632C96.7493 11.177 96.4892 10.836 96.2748 10.998C95.6342 11.472 95.061 12.0258 94.471 12.5602Z" fill="#45C391"/>
<path d="M92.7465 13.1161C92.6671 13.2249 92.8477 13.3579 92.932 13.2539C93.5521 12.5899 94.2273 11.98 94.9502 11.4306C95.1163 11.2928 94.8948 11.0219 94.7093 11.1356C93.935 11.6636 93.2687 12.336 92.7465 13.1161Z" fill="#45C391"/>
<path d="M99.4488 11.7597C99.0322 11.883 98.63 12.0523 98.2254 12.2095C98.2028 12.2185 98.1823 12.2319 98.165 12.2491C98.1477 12.2662 98.134 12.2867 98.1248 12.3093C98.1156 12.3319 98.111 12.3561 98.1113 12.3805C98.1117 12.4049 98.1169 12.429 98.1267 12.4513C98.143 12.49 98.1718 12.5221 98.2085 12.5423C98.2453 12.5625 98.2877 12.5696 98.329 12.5625C98.7432 12.444 99.1671 12.3207 99.5669 12.1756C99.6209 12.1574 99.6657 12.1185 99.6914 12.0673C99.7171 12.0161 99.7217 11.9569 99.7041 11.9024C99.6879 11.8502 99.6524 11.8063 99.6049 11.7798C99.5574 11.7532 99.5015 11.746 99.4488 11.7597Z" fill="#45C391"/>
<path d="M39.6216 27.6689C40.0041 27.9176 40.4496 28.051 40.9053 28.0534C41.2353 28.0513 41.562 27.9873 41.8686 27.8648C42.5242 27.5921 43.103 27.1619 43.5544 26.6121C44.1998 28.0123 45.2186 28.7571 46.5961 28.8272H46.7069C47.9809 28.8272 49.3247 27.7294 50.0159 26.6097C50.5169 25.7972 50.7384 24.6752 50.9455 23.6716C50.9961 23.4153 51.0443 23.1686 51.0997 22.9461C51.142 22.7485 51.1124 22.5421 51.016 22.3646C50.9197 22.1871 50.763 22.0502 50.5747 21.9789C50.3938 21.9042 50.1921 21.8987 50.0075 21.9633C49.8229 22.0279 49.6682 22.1582 49.5728 22.3295C49.3825 22.6584 49.2164 23.0114 49.0526 23.3548C48.5276 24.4575 48.0291 25.4973 46.8683 25.8359C46.5889 25.9205 46.0615 25.1757 45.6641 23.7973C45.5253 23.3108 45.4231 22.8145 45.3582 22.3126C45.4066 22.1916 45.439 22.0648 45.4546 21.9353C45.4546 21.7999 45.4811 21.6524 45.4979 21.4952C45.6039 20.4747 45.7388 19.077 45.4209 18.0082V17.9791C45.3174 17.6093 45.1227 17.2716 44.8549 16.9973C44.407 16.5621 43.7832 16.3952 43.0029 16.4992C40.8499 16.7894 39.3904 19.256 38.733 21.4686C38.3428 22.6221 37.2952 26.1793 39.6216 27.6689ZM42.7934 21.8652C42.7834 21.9847 42.789 22.1051 42.8102 22.2231C42.7809 22.8856 42.8035 23.5495 42.8777 24.2084C42.7701 24.3148 42.6569 24.4333 42.5381 24.5639C42.1046 25.0258 41.3797 25.7924 41.0305 25.7029C40.9832 25.6902 40.9391 25.6674 40.9013 25.6361C40.8635 25.6048 40.8328 25.5658 40.8113 25.5215C40.6837 25.3015 40.4621 24.5542 41.1003 22.3537C41.464 21.0986 42.0155 20.2015 42.7862 19.6042L42.8343 19.5679V19.7662C42.8628 20.4628 42.8491 21.1606 42.7934 21.8555V21.8652Z" fill="#020202"/>
<path d="M8.50363 28.905C8.98392 29.2169 9.54285 29.3847 10.1148 29.3887C10.4578 29.3862 10.7986 29.3333 11.1263 29.2315C12.076 28.9064 12.9217 28.332 13.5755 27.5678C14.2089 29.1662 15.2734 30.0126 16.7449 30.0899H16.8581C17.4039 30.0684 17.9342 29.9015 18.3946 29.6063C18.516 29.723 18.6653 29.8063 18.8281 29.8481C18.9804 29.8891 19.1376 29.9086 19.2953 29.9062C20.0611 29.9062 21.051 29.512 21.2533 28.7986C21.4941 27.9571 21.7108 27.1059 21.9252 26.2692C22.0649 25.713 22.2094 25.1592 22.3539 24.6054C22.4285 24.3346 22.4984 24.0396 22.5706 23.7325C22.8548 22.5548 23.1727 21.2248 23.8037 20.3953V20.4365C23.85 20.7152 23.8694 20.9979 23.8615 21.2804V21.3336C23.8615 22.0325 23.8109 22.7483 23.7531 23.4375C23.6664 24.2873 23.6326 25.1418 23.6519 25.9959C23.717 27.3284 24.2299 28.4262 25.0656 29.009C25.817 29.5313 26.7828 29.6305 27.8545 29.2895C28.9063 28.9748 29.8589 28.3916 30.6192 27.5968C31.0246 27.8324 31.485 27.9559 31.9534 27.9547C32.1677 27.9523 32.3813 27.9305 32.5916 27.8894C33.5959 27.6862 34.3545 27.0067 34.9373 26.1652C35.0337 27.4468 35.1613 28.7285 35.3395 29.9932C35.3708 30.2565 35.4997 30.4982 35.7005 30.6703C35.9014 30.8424 36.1594 30.9322 36.4233 30.9218H36.51C36.8288 30.913 37.1326 30.7835 37.3604 30.5593C37.5882 30.3351 37.7231 30.0326 37.7382 29.7127C37.7815 27.2099 37.6876 24.6611 37.5961 22.1945C37.572 21.5561 37.5479 20.9177 37.5287 20.2817C37.5094 19.6868 37.4974 19.0726 37.4829 18.4656C37.4299 15.9458 37.3769 13.3439 36.8182 10.9377C36.7558 10.7101 36.6207 10.5092 36.4336 10.3661C36.2465 10.223 36.0178 10.1455 35.7826 10.1455C35.5475 10.1455 35.3188 10.223 35.1317 10.3661C34.9446 10.5092 34.8095 10.7101 34.7471 10.9377C34.5345 12.0211 34.4465 13.1254 34.4846 14.2289V14.8625C34.4701 15.8298 34.4846 16.8261 34.5111 17.9264C33.9069 17.7424 33.2634 17.7331 32.6542 17.8998C30.4506 18.5237 29.2031 21.1353 28.943 23.4399C28.8814 24.0538 28.9254 24.6739 29.0731 25.2729C29.0731 25.2898 29.0466 25.3067 29.0369 25.3237L28.9069 25.5655C28.5697 26.1821 28.2783 26.7165 27.669 26.9439C27.2813 27.0889 27.1368 26.9801 27.0886 26.9439C26.5395 26.5279 26.6937 24.6393 26.749 23.9308L26.7683 23.7276C26.7852 23.51 26.8165 23.244 26.8454 22.9732C27.0308 21.3989 27.3078 19.0242 25.8676 18.0884C25.5493 17.8842 25.1911 17.7511 24.8171 17.6981C24.4432 17.6451 24.0622 17.6735 23.7001 17.7813C22.7825 18.0524 21.9692 18.5982 21.3689 19.3458C21.3689 18.6905 21.6819 16.2723 20.7644 16.0281C20.4055 15.9338 19.9239 16.178 19.6349 16.3642C19.0978 16.71 19.0713 17.3532 18.9894 17.9336C18.8792 18.7219 18.8253 19.5171 18.8281 20.3131C18.8281 22.1219 18.7679 23.9404 18.6017 25.7323C18.2236 26.3514 17.7564 26.852 17.0146 27.0648C16.7353 27.1494 16.2078 26.4022 15.8105 25.0262C15.6563 24.4908 15.5483 23.9431 15.4878 23.3891C15.5068 23.32 15.5213 23.2497 15.5311 23.1787V23.1134C15.6612 22.1074 15.8297 20.7629 15.6058 19.6602C15.6212 19.5079 15.6036 19.3539 15.5542 19.2091C15.5047 19.0642 15.4245 18.9318 15.3192 18.8211C15.2163 18.613 15.0777 18.4247 14.9098 18.2649C14.3944 17.7692 13.6478 17.6023 12.6965 17.7813C10.2882 18.2045 8.54698 20.6614 7.78114 22.637C6.62033 25.6501 6.87802 27.8676 8.50363 28.905ZM12.9349 22.8595L12.8988 23.1013C12.8699 23.3157 12.8965 23.5338 12.9759 23.7349C12.9635 24.2409 12.9811 24.7472 13.0289 25.2511C12.8025 25.418 12.5665 25.6163 12.3232 25.8242C11.5622 26.4747 10.7 27.2123 10.0185 26.8979C9.33691 26.5835 9.42361 25.3599 10.187 23.5124C10.6264 22.3934 11.4292 21.4561 12.4653 20.8524L12.593 20.7774C12.7112 20.6948 12.8411 20.6304 12.9783 20.5864C12.981 20.6676 12.9898 20.7484 13.0048 20.8282C13.0778 21.5052 13.0543 22.1892 12.9349 22.8595ZM34.6242 20.4945L34.6724 21.4908C34.6845 21.7495 34.6989 22.0083 34.7109 22.2695C34.6483 22.3734 34.5881 22.4774 34.5255 22.5862C34.1137 23.3117 33.6441 24.1218 33.0805 24.5885C32.7867 24.8303 32.5386 24.944 32.4086 24.8835C32.2183 24.7892 32.0329 24.2645 32.0522 23.4326C32.0786 22.1679 32.293 21.1982 32.7193 20.4655C32.9938 19.9818 33.3454 19.74 33.7308 19.74C33.7808 19.7379 33.831 19.742 33.8801 19.7521C34.1722 19.8104 34.4309 19.9792 34.6026 20.2237C34.6148 20.3135 34.622 20.4039 34.6242 20.4945Z" fill="#020202"/>
<path d="M4.53481 26.0633C4.29398 23.9667 4.05315 21.8363 3.85085 19.7276C3.79786 19.2077 3.7497 18.6975 3.69912 18.1969C4.03629 18.2138 4.36623 18.2283 4.68412 18.2283C7.46814 18.2283 9.68138 17.5029 11.6947 15.9818C14.7051 13.7014 16.1116 10.4393 15.548 7.03445C14.958 3.40714 12.3402 0.909132 9.03114 0.793059C5.55353 0.667312 2.83213 3.21127 0.647786 5.26432C0.451754 5.44894 0.320751 5.69251 0.274497 5.95835C0.0892167 6.19596 -0.0078596 6.49095 -5.14578e-05 6.79263C-5.14578e-05 11.6726 0.0914646 16.0181 0.288947 20.071C0.406954 22.5497 0.529778 24.7188 0.669461 26.6969C0.695952 27.1007 0.71281 27.5215 0.734485 27.9447C0.81396 29.6931 0.893434 31.5019 1.58703 33.0519C1.72487 33.3434 1.94426 33.5883 2.2184 33.7566C2.49254 33.9249 2.80956 34.0095 3.13076 33.9999H3.34751C3.72405 33.973 4.08259 33.8277 4.37224 33.5846C4.66188 33.3415 4.86791 33.013 4.96108 32.6457C5.30065 31.0448 5.02611 29.3061 4.76119 27.6255C4.67449 27.0838 4.59502 26.5591 4.53481 26.0633ZM8.18823 12.93C7.21286 13.4838 6.39403 13.7208 5.60892 13.6748C5.41385 13.6748 5.22118 13.6482 5.03333 13.6313C4.45178 13.5668 3.8653 13.5604 3.28248 13.612C3.05851 11.2687 2.88993 9.11653 2.72135 7.05863L3.09464 6.77087C4.53963 5.68267 6.18691 4.44697 7.88959 4.27286C8.33826 4.20848 8.79555 4.24423 9.22888 4.37756C9.66222 4.5109 10.0609 4.73854 10.3967 5.04427C11.1745 5.78424 11.5864 6.97883 11.5262 8.31852C11.4202 10.6255 9.64767 12.0909 8.18823 12.93Z" fill="#020202"/>
<path d="M60.1934 14.0255C59.9575 12.5194 59.8128 11.0004 59.7599 9.47681C61.2193 9.42845 62.6908 9.41878 64.0732 9.41394C64.5139 9.41394 64.9667 9.42845 65.4122 9.44538C66.6814 9.49132 67.9963 9.53727 69.2149 9.22774C69.5664 9.15279 69.8821 8.96034 70.1104 8.68184C70.3388 8.40335 70.4663 8.05529 70.4721 7.6946C70.4851 7.3062 70.3702 6.92432 70.1451 6.60821C69.9199 6.29209 69.5972 6.0594 69.227 5.94623C67.8663 5.52546 66.337 5.59801 64.8776 5.66572L64.0659 5.70199C62.5174 5.75761 60.8147 5.87852 58.7099 6.08407C55.8512 6.36942 52.1038 6.83371 48.4601 7.91949C48.1772 8.00566 47.9365 8.19468 47.7851 8.4496C47.6336 8.70452 47.5823 9.00699 47.6412 9.29787C47.6811 9.55299 47.8126 9.78463 48.011 9.94903C48.2093 10.1134 48.4607 10.1992 48.7178 10.1902H48.7876C50.3482 10.1104 51.9184 9.98706 53.4573 9.86857C54.818 9.76216 56.21 9.6606 57.602 9.57838C57.5659 10.4054 57.4623 11.2518 57.3612 12.0836C57.3034 12.5141 57.2504 12.9397 57.2095 13.3484C57.1758 13.6869 57.1372 14.0279 57.1011 14.3688C56.9759 15.5538 56.8458 16.7871 56.7663 17.9962C56.7302 18.5427 56.6917 19.0868 56.6532 19.6333C56.4557 22.3683 56.2534 25.1952 56.4822 27.9519C56.5761 29.0595 57.6719 29.7825 58.6352 29.8188H58.705C59.1019 29.8385 59.4914 29.7058 59.7943 29.4475C60.0971 29.1892 60.2906 28.8248 60.3355 28.4283C60.8605 25.1178 60.781 21.8846 60.6172 18.001C60.5618 16.7097 60.374 15.3506 60.1934 14.0255Z" fill="#020202"/>
<path d="M90.1238 21.2804C90.0773 21.2349 90.0256 21.1951 89.9697 21.1619C88.8065 20.4123 87.5806 22.8861 87.1182 23.5801C86.6558 24.2742 85.6034 25.3817 84.6449 24.886C83.7466 24.4193 83.9224 23.0844 83.8887 22.2404C83.8502 20.8258 83.7153 19.416 83.7273 17.9965C83.7466 16.4779 83.6984 14.05 81.9115 13.4865C80.5989 13.0754 79.2623 13.6945 78.1954 14.4224C75.9316 15.9628 73.4727 19.1185 73.427 22.4025C73.1861 22.5621 72.9453 22.741 72.7045 22.9272C71.4859 23.8437 70.0987 24.8835 69.0294 24.2814C68.4947 23.9791 68.2611 22.5282 68.1359 21.7496C68.1215 21.6601 68.107 21.5779 68.095 21.5077C68.6657 20.8089 69.4243 20.3422 70.1565 19.8924C71.168 19.2685 72.2156 18.6252 72.8225 17.3581C73.6004 15.7331 73.545 13.8735 72.6659 12.6136C72.337 12.0939 71.8753 11.6723 71.3288 11.3928C70.7824 11.1134 70.1712 10.9863 69.5592 11.0248C67.423 11.136 65.1761 12.9739 64.2368 14.6836C63.0014 16.9446 62.9363 19.3918 63.0977 21.0386C63.3145 23.2488 63.8202 26.3587 65.6939 27.9474C66.4771 28.6213 67.4753 28.9903 68.5068 28.9872C69.0255 28.9811 69.5406 28.8996 70.0361 28.7454C71.5196 28.3005 73.0103 27.2195 74.1302 25.8968C74.8881 26.4363 75.8001 26.7138 76.7288 26.6875C77.6985 26.6628 78.6574 26.4756 79.5658 26.1338C79.9666 25.9889 80.3556 25.8126 80.729 25.6066C81.0421 27.0285 82.4148 27.7975 83.7418 28.0635C84.9941 28.3053 86.3428 27.5218 87.2483 26.7093C87.9828 26.0685 91.458 22.5306 90.1238 21.2804ZM80.8349 16.2675C80.8008 17.6424 80.6947 19.0147 80.517 20.3784C80.4823 20.697 80.378 21.0039 80.2115 21.2773C80.0449 21.5507 79.8203 21.7838 79.5537 21.9599C79.1612 22.2477 77.2899 22.9272 76.3892 22.5935C76.2901 22.5664 76.1997 22.5138 76.127 22.4408C76.0544 22.3679 76.002 22.2771 75.975 22.1776C75.7052 21.1619 77.273 19.0339 78.075 18.1634C78.4569 17.7451 78.8769 17.3638 79.3297 17.0244C79.7776 16.676 80.2889 16.4189 80.8349 16.2675ZM67.9721 17.9602C68.0877 16.8938 68.3575 14.3958 69.5713 13.8348C69.7137 13.7647 69.8702 13.7283 70.0288 13.7284C70.2564 13.7298 70.4784 13.7988 70.667 13.9267C70.885 14.0651 71.0651 14.2559 71.1912 14.4818C71.3174 14.7076 71.3855 14.9615 71.3895 15.2204C71.3575 15.9078 71.1466 16.5749 70.7778 17.155C70.26 18.0545 69.092 19.3313 67.9167 19.3459C67.9074 18.8849 67.9259 18.4238 67.9721 17.9651V17.9602Z" fill="#020202"/>
</svg>
